<svg xmlns="http://www.w3.org/2000/svg" width="24" height="21" viewBox="0 0 80.035 70.031"><path fill="currentColor" d="M0 31.347q0-5.113 2.02-9.875 2.019-4.761 5.724-8.633 3.705-3.872 8.615-6.762 4.91-2.89 11.023-4.484Q33.496 0 40.018 0q6.52 0 12.635 1.593 6.113 1.594 11.023 4.484 4.91 2.89 8.615 6.762 3.705 3.872 5.725 8.633 2.019 4.762 2.019 9.875 0 6.373-3.168 12.153t-8.522 9.968q-5.354 4.187-12.765 6.67-7.41 2.482-15.562 2.482-7.967 0-15.303-2.371l-9.116 6.447q-5.113 3.223-7.188 1.871-2.075-1.352-.926-7.614l1.89-9.486q-4.484-4.15-6.93-9.3Q0 37.017 0 31.347Z" style="stroke-width:.0370534"/></svg>